# xmcd
#
# Track frame offsets:
#	150
#	9927
#	20792
#	33666
#	46930
#	57184
#	70247
#	81657
#	91663
#	103643
#	113593
#	125227
#	136619
#	147437
#	158031
#	170913
#	181803
#	191316
#	204275
#	215578
#	225191
#	235490
#	246533
#	255525
#	266914
#
# Disc length: 3744
#
# Revision: 1
# Processed by: cddbd v1.5.1PL0 Copyright (c) Steve Scherf et al.
# Submitted via: dBpowerAMP V4.0
# Normalized: r0:DSETVAR1,TDELIM( - )
#
DISCID=620e9e19
DTITLE=Various Artist - The Golden Torch Revisited
DYEAR=1900
DGENRE=Northern Soul
TTITLE0=Lenis Guess - Just ask me.
TTITLE1=The Vibrating Vibrations - Surprise party for baby.
TTITLE2=Dee Dee Sharp - What kind of lady.
TTITLE3=Phillip Mitchell - Free for all.
TTITLE4=Mamie Galore - It ain't necessary.
TTITLE5=The Prophets - I got the fever.
TTITLE6=The Valentines - Break away.
TTITLE7=Bob Wilson - Suzy's Serenade.
TTITLE8=The Dramatics - Inky dinky wang dang doo.
TTITLE9=The Superiors - What would I do.
TTITLE10=Lou Johnson - Unsatified.
TTITLE11=Roscoe Shelton - Running for my life.
TTITLE12=The Tymes - What would I do.
TTITLE13=Sequins - A case of love.
TTITLE14=The Royal Jokers - Love game A-Z.
TTITLE15=Jimmy Conwell - Too Much.
TTITLE16=The Ovations - They Say.
TTITLE17=Luther Ingram - If it's all the same to you babe.
TTITLE18=Jeanette White - Music.
TTITLE19=The Dynamics - bingo.
TTITLE20=Innocent Bystanders - Frantic escape.
TTITLE21=The Parliments - Don't be sore at me.
TTITLE22=James Bounty - Prove yourself a lady.
TTITLE23=The Exciters - Number One.
TTITLE24=Tony Micheals - I love the life I live.
EXTD=
EXTT0=
EXTT1=
EXTT2=
EXTT3=
EXTT4=
EXTT5=
EXTT6=
EXTT7=
EXTT8=
EXTT9=
EXTT10=
EXTT11=
EXTT12=
EXTT13=
EXTT14=
EXTT15=
EXTT16=
EXTT17=
EXTT18=
EXTT19=
EXTT20=
EXTT21=
EXTT22=
EXTT23=
EXTT24=
PLAYORDER=
